<?xml version="1.0" encoding="UTF-8" standalone="no"?>
<svg
   width="1024"
   height="768"
   viewBox="0 0 270.93332 203.20001"
   version="1.1"
   id="svg19503"
   inkscape:version="1.1 (c68e22c387, 2021-05-23)"
   sodipodi:docname="SodaJoy.svg"
   inkscape:export-filename="C:\Users\Silvio Mayolo\Documents\GameMakerStudio2\BullseyeCola\art\UIPanel.png"
   inkscape:export-xdpi="96"
   inkscape:export-ydpi="96"
   xmlns:inkscape="http://www.inkscape.org/namespaces/inkscape"
   xmlns:sodipodi="http://sodipodi.sourceforge.net/DTD/sodipodi-0.dtd"
   xmlns:xlink="http://www.w3.org/1999/xlink"
   xmlns="http://www.w3.org/2000/svg"
   xmlns:svg="http://www.w3.org/2000/svg"
   xmlns:rdf="http://www.w3.org/1999/02/22-rdf-syntax-ns#"
   xmlns:cc="http://creativecommons.org/ns#"
   xmlns:dc="http://purl.org/dc/elements/1.1/">
  <defs
     id="defs19497">
    <linearGradient
       inkscape:collect="always"
       id="linearGradient6030">
      <stop
         style="stop-color:#bc5f7b;stop-opacity:1"
         offset="0"
         id="stop6026" />
      <stop
         style="stop-color:#702b69;stop-opacity:1"
         offset="1"
         id="stop6028" />
    </linearGradient>
    <linearGradient
       inkscape:collect="always"
       id="linearGradient5474-5">
      <stop
         style="stop-color:#37a8b5;stop-opacity:1"
         offset="0"
         id="stop5470" />
      <stop
         style="stop-color:#23546c;stop-opacity:1"
         offset="1"
         id="stop5472" />
    </linearGradient>
    <linearGradient
       inkscape:collect="always"
       id="linearGradient4980-2">
      <stop
         style="stop-color:#75b537;stop-opacity:1"
         offset="0"
         id="stop4976" />
      <stop
         style="stop-color:#405e1e;stop-opacity:1"
         offset="1"
         id="stop4978" />
    </linearGradient>
    <linearGradient
       inkscape:collect="always"
       id="linearGradient3625">
      <stop
         style="stop-color:#ce9766;stop-opacity:1"
         offset="0"
         id="stop3621" />
      <stop
         style="stop-color:#744a25;stop-opacity:1"
         offset="1"
         id="stop3623" />
    </linearGradient>
    <linearGradient
       inkscape:collect="always"
       xlink:href="#linearGradient3625"
       id="linearGradient3627"
       x1="123.34489"
       y1="-0.22967665"
       x2="123.34489"
       y2="202.22699"
       gradientUnits="userSpaceOnUse" />
    <filter
       inkscape:label="Air Spray"
       inkscape:menu="Scatter"
       inkscape:menu-tooltip="Convert to small scattered particles with some thickness"
       width="1.0001772"
       height="1.0002362"
       y="-0.00011811023"
       x="-8.858268e-05"
       style="color-interpolation-filters:sRGB;"
       id="filter4423">
      <feGaussianBlur
         stdDeviation="0.01"
         result="result1"
         id="feGaussianBlur4411" />
      <feBlend
         in2="result1"
         result="fbSourceGraphic"
         mode="multiply"
         id="feBlend4413" />
      <feTurbulence
         baseFrequency="0.8"
         type="fractalNoise"
         seed="0"
         numOctaves="3"
         result="result3"
         id="feTurbulence4415" />
      <feDisplacementMap
         in="fbSourceGraphic"
         xChannelSelector="R"
         yChannelSelector="G"
         scale="50"
         result="result2"
         in2="result3"
         id="feDisplacementMap4417" />
      <feMorphology
         radius="1"
         operator="dilate"
         result="result4"
         id="feMorphology4419" />
      <feBlend
         mode="screen"
         in2="result2"
         id="feBlend4421" />
    </filter>
    <linearGradient
       inkscape:collect="always"
       xlink:href="#linearGradient4980-2"
       id="linearGradient4844"
       gradientUnits="userSpaceOnUse"
       x1="123.34489"
       y1="-0.22967665"
       x2="123.34489"
       y2="202.22699" />
    <linearGradient
       inkscape:collect="always"
       xlink:href="#linearGradient5474-5"
       id="linearGradient5169"
       gradientUnits="userSpaceOnUse"
       x1="123.34489"
       y1="-0.22967665"
       x2="123.34489"
       y2="202.22699" />
    <linearGradient
       inkscape:collect="always"
       xlink:href="#linearGradient6030"
       id="linearGradient5797"
       gradientUnits="userSpaceOnUse"
       x1="123.34489"
       y1="-0.22967665"
       x2="123.34489"
       y2="202.22699" />
  </defs>
  <sodipodi:namedview
     id="base"
     pagecolor="#ffffff"
     bordercolor="#666666"
     borderopacity="1.0"
     inkscape:pageopacity="0.0"
     inkscape:pageshadow="2"
     inkscape:zoom="1"
     inkscape:cx="740"
     inkscape:cy="1356.5"
     inkscape:document-units="px"
     inkscape:current-layer="layer1"
     inkscape:document-rotation="0"
     showgrid="false"
     units="px"
     inkscape:window-width="2560"
     inkscape:window-height="1377"
     inkscape:window-x="-8"
     inkscape:window-y="-8"
     inkscape:window-maximized="1"
     inkscape:snap-global="false"
     inkscape:pagecheckerboard="0" />
  <metadata
     id="metadata19500">
    <rdf:RDF>
      <cc:Work
         rdf:about="">
        <dc:format>image/svg+xml</dc:format>
        <dc:type
           rdf:resource="http://purl.org/dc/dcmitype/StillImage" />
      </cc:Work>
    </rdf:RDF>
  </metadata>
  <g
     inkscape:label="Layer 1"
     inkscape:groupmode="layer"
     id="layer1">
    <path
       id="circle1095"
       style="font-variation-settings:normal;vector-effect:none;fill:#000000;fill-opacity:1;stroke:none;stroke-width:0.273926;stroke-linecap:butt;stroke-linejoin:miter;stroke-miterlimit:4;stroke-dasharray:none;stroke-dashoffset:0;stroke-opacity:1;stop-color:#000000"
       d="m -40.002378,0.00180663 a 12.700086,12.700086 0 0 0 -12.861,11.53601537 12.700086,12.700086 0 0 0 11.48444,13.808971 12.700086,12.700086 0 0 0 13.80898,-11.484454 12.700086,12.700086 0 0 0 -11.48446,-13.80896837 12.700086,12.700086 0 0 0 -0.94796,-0.05156 z m -0.0288,1.70388997 a 10.995608,10.995608 0 0 1 0.8212,0.04494 10.995608,10.995608 0 0 1 9.94282,11.9556014 10.995608,10.995608 0 0 1 -11.9556,9.943291 10.995608,10.995608 0 0 1 -9.94329,-11.956075 10.995608,10.995608 0 0 1 11.13487,-9.9877564 z"
       inkscape:export-filename="C:\Omnipocket\Development\GameMaker\Collabs\bullseye-cola\art\spr_SodaJoyBubbles.png"
       inkscape:export-xdpi="96"
       inkscape:export-ydpi="96" />
    <path
       id="circle1099"
       style="font-variation-settings:normal;vector-effect:none;fill:#000000;fill-opacity:1;stroke:none;stroke-width:0.21171;stroke-linecap:butt;stroke-linejoin:miter;stroke-miterlimit:4;stroke-dasharray:none;stroke-dashoffset:0;stroke-opacity:1;stop-color:#000000"
       d="m -40.051108,2.8859306 a 9.8155849,9.8155849 0 0 0 -9.93998,8.9158484 9.8155849,9.8155849 0 0 0 8.87612,10.672717 9.8155849,9.8155849 0 0 0 10.67271,-8.876112 9.8155849,9.8155849 0 0 0 -8.87611,-10.6727184 9.8155849,9.8155849 0 0 0 -0.73274,-0.03974 z m -0.0222,1.316942 a 8.4982354,8.4982354 0 0 1 0.63434,0.03453 8.4982354,8.4982354 0 0 1 7.68501,9.2403544 8.4982354,8.4982354 0 0 1 -9.24036,7.684527 8.4982354,8.4982354 0 0 1 -7.68453,-9.23988 8.4982354,8.4982354 0 0 1 8.60554,-7.7195334 z"
       inkscape:export-filename="C:\Omnipocket\Development\GameMaker\Collabs\bullseye-cola\art\spr_SodaJoyBubbles.png"
       inkscape:export-xdpi="96"
       inkscape:export-ydpi="96" />
    <path
       id="circle1103"
       style="font-variation-settings:normal;vector-effect:none;fill:#000000;fill-opacity:1;stroke:none;stroke-width:0.155151;stroke-linecap:butt;stroke-linejoin:miter;stroke-miterlimit:4;stroke-dasharray:none;stroke-dashoffset:0;stroke-opacity:1;stop-color:#000000"
       d="m -40.095578,5.5075166 a 7.1933104,7.1933104 0 0 0 -7.28386,6.5340934 7.1933104,7.1933104 0 0 0 6.50476,7.821235 7.1933104,7.1933104 0 0 0 7.82125,-6.504766 7.1933104,7.1933104 0 0 0 -6.50477,-7.8212354 7.1933104,7.1933104 0 0 0 -0.53738,-0.02933 z m -0.0161,0.965473 a 6.2278964,6.2278964 0 0 1 0.465,0.02507 6.2278964,6.2278964 0 0 1 5.63201,6.7720344 6.2278964,6.2278964 0 0 1 -6.77204,5.631535 6.2278964,6.2278964 0 0 1 -5.63153,-6.77156 6.2278964,6.2278964 0 0 1 6.30656,-5.6570794 z"
       inkscape:export-filename="C:\Omnipocket\Development\GameMaker\Collabs\bullseye-cola\art\spr_SodaJoyBubbles.png"
       inkscape:export-xdpi="96"
       inkscape:export-ydpi="96" />
    <rect
       style="fill:#c8860d;fill-opacity:0.621547;stroke:none;stroke-width:0.264583;stroke-linecap:round;stroke-linejoin:round"
       id="rect2114"
       width="16.933332"
       height="169.33333"
       x="-52.916668"
       y="31.75"
       inkscape:export-filename="C:\Omnipocket\Development\GameMaker\Collabs\bullseye-cola\art\SodaJoySodas.png"
       inkscape:export-xdpi="96"
       inkscape:export-ydpi="96" />
    <path
       style="font-variation-settings:normal;fill:#ffffff;fill-opacity:1;stroke:none;stroke-width:0.264583;stroke-linecap:butt;stroke-linejoin:miter;stroke-miterlimit:4;stroke-dasharray:none;stroke-dashoffset:0;stroke-opacity:1;stop-color:#000000"
       d="m -42.311842,190.42744 c -0.99886,0.009 -3.807973,1.09449 -3.897433,1.59318 -0.0281,0.1567 0.17808,0.46144 0.50229,0.81649 -1.06299,0.36374 -2.15598,0.89551 -2.21123,1.20354 -0.10224,0.56994 2.88757,3.09502 3.43183,2.8975 0.294023,-0.1067 0.624373,-1.27847 0.796333,-2.39313 0.41487,0.26945 0.75953,0.42847 0.91209,0.3731 0.54426,-0.19752 1.21479,-4.04445 0.76998,-4.42402 -0.0556,-0.0474 -0.16116,-0.068 -0.30386,-0.0667 z"
       id="path2534" />
    <path
       style="font-variation-settings:normal;fill:#ffffff;fill-opacity:1;stroke:none;stroke-width:0.264583;stroke-linecap:butt;stroke-linejoin:miter;stroke-miterlimit:4;stroke-dasharray:none;stroke-dashoffset:0;stroke-opacity:1;stop-color:#000000"
       d="m -45.022785,178.0654 v 1.50275 h 1.703773 v -1.50275 z"
       id="path2502" />
    <path
       style="font-variation-settings:normal;fill:#ffffff;fill-opacity:1;stroke:none;stroke-width:0.264583;stroke-linecap:butt;stroke-linejoin:miter;stroke-miterlimit:4;stroke-dasharray:none;stroke-dashoffset:0;stroke-opacity:1;stop-color:#000000"
       d="m -43.967552,173.32667 c -0.781413,0 -1.361963,0.1827 -1.741503,0.54829 -0.37675,0.3628 -0.59324,0.843 -0.64905,1.44022 l 1.62419,0.20051 c 0.0363,-0.32652 0.11864,-0.5551 0.24701,-0.68626 0.131173,-0.13117 0.295893,-0.19689 0.494033,-0.19689 0.18419,0 0.32101,0.0432 0.41031,0.12971 0.0921,0.0837 0.13798,0.20255 0.13798,0.35604 0,0.15349 -0.11295,0.32225 -0.339,0.50643 -0.42419,0.35164 -0.697833,0.59737 -0.820623,0.73691 -0.12001,0.13954 -0.21043,0.29434 -0.27182,0.46457 -0.0614,0.16745 -0.092,0.38662 -0.092,0.65733 v 0.15916 h 1.590603 c 0,-0.21768 0.036,-0.39366 0.10853,-0.52762 0.0753,-0.13674 0.25402,-0.31676 0.53588,-0.54002 0.40466,-0.31814 0.67292,-0.58775 0.80409,-0.80822 0.13116,-0.22046 0.19637,-0.44904 0.19637,-0.68626 0,-0.5721 -0.2538,-1.02978 -0.76171,-1.37304 -0.37396,-0.25396 -0.86492,-0.38086 -1.4733,-0.38086 z"
       id="path2486" />
    <path
       style="font-variation-settings:normal;fill:#ffffff;fill-opacity:1;stroke:none;stroke-width:0.264583;stroke-linecap:butt;stroke-linejoin:miter;stroke-miterlimit:4;stroke-dasharray:none;stroke-dashoffset:0;stroke-opacity:1;stop-color:#000000"
       d="m -41.691722,156.70419 c -1.25151,0.006 -3.459832,0.44803 -3.614772,0.8537 -0.0689,0.18029 0.16112,0.63798 0.51832,1.16375 l -2.91972,2.38383 1.38648,1.69861 2.932122,-2.39365 c 0.39768,0.39275 0.74833,0.65507 0.92242,0.62683 0.57157,-0.0927 1.96837,-3.72437 1.59629,-4.17545 -0.093,-0.11278 -0.40397,-0.15946 -0.82114,-0.15762 z"
       id="path2448" />
    <path
       style="font-variation-settings:normal;fill:#ffffff;fill-opacity:1;stroke:none;stroke-width:0.264583;stroke-linecap:butt;stroke-linejoin:miter;stroke-miterlimit:4;stroke-dasharray:none;stroke-dashoffset:0;stroke-opacity:1;stop-color:#000000"
       d="m -46.810274,139.96724 c -0.1427,-0.001 -0.24826,0.0197 -0.30386,0.0672 -0.44481,0.37956 0.22572,4.22598 0.76998,4.4235 0.15256,0.0554 0.49723,-0.10366 0.91209,-0.3731 0.17195,1.11477 0.5028,2.28642 0.79685,2.39313 0.54426,0.19752 3.53355,-2.32756 3.43132,-2.89749 -0.0553,-0.30803 -1.14829,-0.8393 -2.21124,-1.20303 0.32437,-0.35517 0.53041,-0.66027 0.5023,-0.81701 -0.0895,-0.49869 -2.89857,-1.58399 -3.89744,-1.59318 z"
       id="path2392" />
    <path
       style="font-variation-settings:normal;fill:#ffffff;fill-opacity:1;stroke:none;stroke-width:0.264583;stroke-linecap:butt;stroke-linejoin:miter;stroke-miterlimit:4;stroke-dasharray:none;stroke-dashoffset:0;stroke-opacity:1;stop-color:#000000"
       d="m -44.399564,121.9626 c -0.58474,-0.003 -2.51212,3.37767 -2.22209,3.87883 0.0798,0.13781 0.43407,0.23753 0.91105,0.29921 -0.57669,0.96425 -1.06781,2.07575 -0.91105,2.34663 0.29002,0.50116 4.20323,0.49816 4.4912,-0.004 0.15555,-0.27134 -0.34886,-1.3789 -0.93741,-2.34095 0.49085,-0.0622 0.85668,-0.16407 0.93741,-0.30489 0.28796,-0.5023 -1.68438,-3.87218 -2.26911,-3.8747 z"
       id="path2338" />
    <path
       style="font-variation-settings:normal;fill:#ffffff;fill-opacity:1;stroke:none;stroke-width:0.264583;stroke-linecap:butt;stroke-linejoin:miter;stroke-miterlimit:4;stroke-dasharray:none;stroke-dashoffset:0;stroke-opacity:1;stop-color:#000000"
       d="m -46.901744,88.989593 c -0.37822,0.004 -0.65693,0.0519 -0.74414,0.15761 -0.37208,0.45109 1.02472,4.08275 1.59629,4.17546 0.17404,0.0282 0.52488,-0.23426 0.92242,-0.62684 l 2.93212,2.39314 1.38648,-1.69861 -2.91972,-2.38331 c 0.35734,-0.52593 0.58719,-0.98342 0.51832,-1.16376 -0.15817,-0.41411 -2.45622,-0.86684 -3.69177,-0.85369 z"
       id="path2286" />
    <path
       style="font-variation-settings:normal;fill:#ffffff;fill-opacity:1;stroke:none;stroke-width:0.264583;stroke-linecap:butt;stroke-linejoin:miter;stroke-miterlimit:4;stroke-dasharray:none;stroke-dashoffset:0;stroke-opacity:1;stop-color:#000000"
       d="m -44.629537,106.11513 c -0.008,3e-5 -0.017,0.001 -0.0253,0.004 -0.26507,0.0832 -0.39972,1.49866 -0.6382,1.65003 -0.23849,0.15137 -1.74181,-0.23899 -1.91772,-0.0377 -0.1759,0.20127 0.96702,0.9969 0.88109,1.21646 -0.0859,0.21957 -1.86872,0.98746 -1.85312,1.1896 0.0156,0.20213 1.85163,-0.15155 1.96681,0.005 0.11517,0.15619 -0.90326,1.58878 -0.7028,1.67121 0.20045,0.0824 1.63406,-1.18882 1.88722,-1.18907 0.25316,-2.6e-4 0.57195,1.28676 0.83613,1.20406 0.26417,-0.0827 0.46659,-1.51064 0.70435,-1.66347 0.23775,-0.15282 1.74857,0.21303 1.92184,0.0114 0.17328,-0.20165 -1.00647,-0.96918 -0.92087,-1.18752 0.0856,-0.21834 1.83541,-0.9741 1.82314,-1.17771 -0.0123,-0.20361 -1.82347,0.13451 -1.93993,-0.0217 -0.11647,-0.15621 0.88059,-1.56574 0.67903,-1.64899 -0.20157,-0.0833 -1.5586,1.17554 -1.80971,1.17253 -0.24326,-0.003 -0.62718,-1.19872 -0.89194,-1.19786 z"
       id="path2246" />
    <path
       style="font-variation-settings:normal;fill:#ffffff;fill-opacity:1;stroke:none;stroke-width:0.264583;stroke-linecap:butt;stroke-linejoin:miter;stroke-miterlimit:4;stroke-dasharray:none;stroke-dashoffset:0;stroke-opacity:1;stop-color:#000000"
       d="m -41.329991,71.985428 c -0.036,-6.35e-4 -0.0935,0.03491 -0.21756,0.115755 -0.18161,0.118389 -0.42017,1.146596 -0.59841,2.050004 a 1.5119048,1.5119048 0 0 0 -0.59893,-0.123506 1.5119048,1.5119048 0 0 0 -0.48731,0.08165 c -0.17174,-0.839599 -0.38565,-1.710634 -0.5519,-1.81901 -0.33074,-0.215594 -0.18906,-0.107866 -0.4253,0.14366 -0.12872,0.137059 0.16323,1.116717 0.45579,1.980241 a 1.5119048,1.5119048 0 0 0 -0.39894,0.574125 2.8111979,1.9135045 0 0 0 -0.36381,-0.01602 2.8111979,1.9135045 0 0 0 -2.67684,1.332218 0.49609372,0.4113948 0 0 0 -0.1819,-0.02894 0.49609372,0.4113948 0 0 0 -0.49609,0.411344 0.49609372,0.4113948 0 0 0 0.49609,0.411861 0.49609372,0.4113948 0 0 0 0.0656,-0.0041 2.8111979,1.9135045 0 0 0 0.22325,0.56534 0.96856395,0.8031994 0 0 0 -0.17054,0.454236 0.96856395,0.8031994 0 0 0 0.96842,0.803568 0.96856395,0.8031994 0 0 0 0.71262,-0.260449 2.8111979,1.9135045 0 0 0 1.05936,0.14211 2.8111979,1.9135045 0 0 0 0.92966,-0.10852 0.96856395,0.8031994 0 0 0 0.79478,0.344681 0.96856395,0.8031994 0 0 0 0.96842,-0.803051 0.96856395,0.8031994 0 0 0 -0.19017,-0.478007 2.8111979,1.9135045 0 0 0 0.30851,-0.868681 2.8111979,1.9135045 0 0 0 -0.0207,-0.22996 1.5119048,1.5119048 0 0 0 0.49299,-1.116728 1.5119048,1.5119048 0 0 0 -0.43305,-1.05885 c 0.31735,-0.913833 0.68528,-2.084715 0.54364,-2.235523 -0.14765,-0.157203 -0.14776,-0.258363 -0.20774,-0.259415 z"
       id="path2244" />
    <path
       style="font-variation-settings:normal;fill:#ffffff;fill-opacity:1;stroke:none;stroke-width:0.264583;stroke-linecap:butt;stroke-linejoin:miter;stroke-miterlimit:4;stroke-dasharray:none;stroke-dashoffset:0;stroke-opacity:1;stop-color:#000000"
       d="m -44.944758,54.674857 -2.31975,0.65319 1.69033,6.003251 1.64021,-0.461987 a 1.7481398,2.6458332 74.276848 0 0 1.82573,-0.715202 1.7481398,2.6458332 74.276848 0 0 0.47129,-2.395719 1.7481398,2.6458332 74.276848 0 0 -2.55178,-0.398426 z"
       id="path2242" />
    <path
       style="font-variation-settings:normal;fill:#ffffff;fill-opacity:1;stroke:none;stroke-width:0.264583;stroke-linecap:butt;stroke-linejoin:miter;stroke-miterlimit:4;stroke-dasharray:none;stroke-dashoffset:0;stroke-opacity:1;stop-color:#000000"
       d="m -44.133434,37.229927 c -0.73571,-0.0056 -3.22866,4.467272 -2.86546,5.141288 0.0146,0.02703 0.0391,0.05304 0.0677,0.07803 a 2.7831198,2.7831198 0 0 0 2.7776,2.600358 2.7831198,2.7831198 0 0 0 2.77606,-2.586405 c 0.0148,-0.01581 0.0284,-0.03188 0.0377,-0.04858 0.3725,-0.668371 -2.05793,-5.179043 -2.79363,-5.184697 z"
       id="path2240" />
    <rect
       style="fill:url(#linearGradient3627);fill-opacity:1;stroke:none;stroke-width:0.23089;stroke-linecap:round;stroke-linejoin:round;filter:url(#filter4423)"
       id="rect3428"
       width="270.93332"
       height="203.20001"
       x="4.6698852e-17"
       y="4.9768969e-17"
       inkscape:export-filename="C:\Omnipocket\Development\GameMaker\Collabs\bullseye-cola\art\SodaBg1.png"
       inkscape:export-xdpi="96"
       inkscape:export-ydpi="96"
       transform="matrix(1.123047,0,0,1.1692728,-16.668765,-17.198117)" />
    <rect
       style="fill:#000000;fill-opacity:0.05;stroke:none;stroke-width:0.264583;stroke-linecap:round;stroke-linejoin:round"
       id="rect4497"
       width="270.93332"
       height="203.2"
       x="0"
       y="-2.1919057e-16"
       inkscape:export-filename="C:\Omnipocket\Development\GameMaker\Collabs\bullseye-cola\art\SodaBg1.png"
       inkscape:export-xdpi="96"
       inkscape:export-ydpi="96" />
    <rect
       style="fill:url(#linearGradient4844);fill-opacity:1;stroke:none;stroke-width:0.23089;stroke-linecap:round;stroke-linejoin:round;filter:url(#filter4423)"
       id="rect4840"
       width="270.93332"
       height="203.20001"
       x="4.6698852e-17"
       y="4.9768969e-17"
       inkscape:export-filename="C:\Omnipocket\Development\GameMaker\Collabs\bullseye-cola\art\SodaBg1.png"
       inkscape:export-xdpi="96"
       inkscape:export-ydpi="96"
       transform="matrix(1.123047,0,0,1.1692728,-16.668765,253.73522)" />
    <rect
       style="fill:#000000;fill-opacity:0.05;stroke:none;stroke-width:0.264583;stroke-linecap:round;stroke-linejoin:round"
       id="rect4842"
       width="270.93332"
       height="203.2"
       x="0"
       y="270.93332"
       inkscape:export-filename="C:\Omnipocket\Development\GameMaker\Collabs\bullseye-cola\art\SodaBg2.png"
       inkscape:export-xdpi="96"
       inkscape:export-ydpi="96" />
    <rect
       style="fill:url(#linearGradient5169);fill-opacity:1;stroke:none;stroke-width:0.23089;stroke-linecap:round;stroke-linejoin:round;filter:url(#filter4423)"
       id="rect5165"
       width="270.93332"
       height="203.20001"
       x="4.6698852e-17"
       y="4.9768969e-17"
       inkscape:export-filename="C:\Omnipocket\Development\GameMaker\Collabs\bullseye-cola\art\SodaBg1.png"
       inkscape:export-xdpi="96"
       inkscape:export-ydpi="96"
       transform="matrix(1.123047,0,0,1.1692728,-16.668765,524.66855)" />
    <rect
       style="fill:#000000;fill-opacity:0.05;stroke:none;stroke-width:0.264583;stroke-linecap:round;stroke-linejoin:round"
       id="rect5167"
       width="270.93332"
       height="203.2"
       x="0"
       y="541.86664"
       inkscape:export-filename="C:\Omnipocket\Development\GameMaker\Collabs\bullseye-cola\art\SodaBg32.png"
       inkscape:export-xdpi="96"
       inkscape:export-ydpi="96" />
    <rect
       style="fill:url(#linearGradient5797);fill-opacity:1;stroke:none;stroke-width:0.23089;stroke-linecap:round;stroke-linejoin:round;filter:url(#filter4423)"
       id="rect5793"
       width="270.93332"
       height="203.20001"
       x="4.6698852e-17"
       y="4.9768969e-17"
       inkscape:export-filename="C:\Omnipocket\Development\GameMaker\Collabs\bullseye-cola\art\SodaBg1.png"
       inkscape:export-xdpi="96"
       inkscape:export-ydpi="96"
       transform="matrix(1.123047,0,0,1.1692728,-16.668765,795.60188)" />
    <rect
       style="fill:#000000;fill-opacity:0.05;stroke:none;stroke-width:0.264583;stroke-linecap:round;stroke-linejoin:round"
       id="rect5795"
       width="270.93332"
       height="203.2"
       x="0"
       y="812.79999"
       inkscape:export-filename="C:\Omnipocket\Development\GameMaker\Collabs\bullseye-cola\art\SodaBg4.png"
       inkscape:export-xdpi="96"
       inkscape:export-ydpi="96" />
  </g>
</svg>
