<?xml version="1.0" encoding="UTF-8" standalone="no"?>
<svg
   xmlns:dc="http://purl.org/dc/elements/1.1/"
   xmlns:cc="http://creativecommons.org/ns#"
   xmlns:rdf="http://www.w3.org/1999/02/22-rdf-syntax-ns#"
   xmlns:svg="http://www.w3.org/2000/svg"
   xmlns="http://www.w3.org/2000/svg"
   xmlns:sodipodi="http://sodipodi.sourceforge.net/DTD/sodipodi-0.dtd"
   xmlns:inkscape="http://www.inkscape.org/namespaces/inkscape"
   width="300"
   height="300"
   viewBox="0 0 79.374998 79.375002"
   version="1.1"
   id="svg12080"
   inkscape:version="1.0.2-2 (e86c870879, 2021-01-15)"
   sodipodi:docname="TileBG.svg">
  <defs
     id="defs12074" />
  <sodipodi:namedview
     id="base"
     pagecolor="#ffffff"
     bordercolor="#666666"
     borderopacity="1.0"
     inkscape:pageopacity="0.0"
     inkscape:pageshadow="2"
     inkscape:zoom="0.98994949"
     inkscape:cx="55.327505"
     inkscape:cy="151.8941"
     inkscape:document-units="mm"
     inkscape:current-layer="layer1"
     inkscape:document-rotation="0"
     showgrid="false"
     units="px"
     inkscape:window-width="1920"
     inkscape:window-height="1017"
     inkscape:window-x="-8"
     inkscape:window-y="-8"
     inkscape:window-maximized="1" />
  <metadata
     id="metadata12077">
    <rdf:RDF>
      <cc:Work
         rdf:about="">
        <dc:format>image/svg+xml</dc:format>
        <dc:type
           rdf:resource="http://purl.org/dc/dcmitype/StillImage" />
        <dc:title></dc:title>
      </cc:Work>
    </rdf:RDF>
  </metadata>
  <g
     inkscape:label="Layer 1"
     inkscape:groupmode="layer"
     id="layer1">
    <rect
       style="fill:#000000;stroke:#000000;stroke-width:0.342;stroke-linejoin:bevel;stop-color:#000000;stroke-opacity:1;fill-opacity:1"
       id="rect12643"
       width="83.120819"
       height="84.189903"
       x="-1.0690781"
       y="-2.4054255" />
    <path
       id="path13321"
       style="font-variation-settings:normal;vector-effect:none;fill:#cacaca;fill-opacity:1;stroke:#000000;stroke-width:0.390988;stroke-linecap:square;stroke-linejoin:miter;stroke-miterlimit:4;stroke-dasharray:none;stroke-dashoffset:0;stroke-opacity:1;stop-color:#000000"
       d="m 9.804995,1.9946819 a 5.3830995,3.3287221 0 0 0 -5.383134,3.328995 5.3830995,3.3287221 0 0 0 0.0036,0.118339 5.3830995,3.3287221 0 0 0 -0.0036,0.118856 5.3830995,3.3287221 0 0 0 0.0083,0.17725 5.3830995,3.3287221 0 0 0 -0.0062,0.09715 h -0.0217 c 0,0 -0.08624,0.515846 -0.161231,1.283643 l -0.04289,-0.001 a 5.6015971,3.6697226 0 0 0 -0.0021,0.530717 c -0.05548,0.736263 -0.0889,1.616137 -0.04031,2.5150921 0.05558,1.028271 0.09257,2.029515 0.136426,2.811714 l -0.08113,-0.0026 a 5.4206729,4.3266129 0 0 0 0.328662,1.83968 c 0.09378,0.36549 0.244616,0.71166 0.43925,1.036114 a 4.8034458,3.4408895 0 0 0 4.65863,2.602425 4.8034458,3.4408895 0 0 0 4.76405,-3.003436 c 0.03552,-0.08981 0.06873,-0.180739 0.0987,-0.273367 a 5.4206729,4.3266129 0 0 0 0.536919,-1.877404 l -0.135393,-0.0041 c 0.01843,-0.116046 0.03494,-0.208012 0.05374,-0.336412 l 0.07545,-0.0026 a 5.4146695,4.7095851 0 0 0 -0.06253,-0.09147 c 0.110857,-0.772096 0.221339,-1.726427 0.273885,-2.698543 0.04008,-0.7415471 0.04729,-1.4414221 0.04547,-2.0892781 a 5.6015971,3.6697226 0 0 0 0.09767,-0.682129 l -0.101803,-0.0026 c -0.0017,-0.100321 -0.002,-0.20074 -0.0041,-0.293522 l 0.157096,-0.0041 a 5.6209279,3.9831443 0 0 0 -0.163297,-0.19482 c -0.01755,-0.619847 -0.04083,-1.061951 -0.04083,-1.061951 h -0.04599 a 5.3830995,3.3287221 0 0 0 -0.0021,-0.04289 5.3830995,3.3287221 0 0 0 -0.0041,-0.05323 5.3830995,3.3287221 0 0 0 0.0078,-0.178284 5.3830995,3.3287221 0 0 0 -0.0031,-0.118339 5.3830995,3.3287221 0 0 0 0.0031,-0.118856 5.3830995,3.3287221 0 0 0 -5.383134,-3.328995 z" />
    <path
       id="path13240-9"
       style="font-variation-settings:normal;opacity:1;vector-effect:none;fill:#cacaca;fill-opacity:1;stroke:#000000;stroke-width:0.390988;stroke-linecap:square;stroke-linejoin:miter;stroke-miterlimit:4;stroke-dasharray:none;stroke-dashoffset:0;stroke-opacity:1;stop-color:#000000;stop-opacity:1"
       d="m 29.607732,25.400358 a 3.2221934,1.7003488 0 0 0 -3.186369,1.561663 l -0.02067,0.0041 c 0.01316,0.04249 -0.470768,1.101572 -0.459404,1.19321 5.3e-5,0.11956 0.02787,0.236238 0.07907,0.348816 -0.01374,0.425461 -0.03684,1.264809 -0.02325,2.464448 5.1e-5,0.0044 -5.3e-5,0.008 0,0.0124 -0.004,0.283171 -0.003,0.574551 0.0026,0.869199 0.0022,0.120457 0.0036,0.239921 0.0083,0.361736 0.03631,0.959249 0.06036,2.175838 0.08888,3.189467 0.02853,1.013632 0.06111,1.824212 0.114205,1.969907 0.0079,0.06517 0.02418,0.133012 0.04599,0.202055 0.03917,0.159792 0.09359,0.309676 0.156062,0.453718 a 3.4115136,1.6397504 0 0 0 -0.120407,0.431498 3.4115136,1.6397504 0 0 0 3.411162,1.639176 3.4115136,1.6397504 0 0 0 3.411678,-1.639176 3.4115136,1.6397504 0 0 0 -0.121439,-0.43408 c 0.06198,-0.143288 0.115573,-0.292286 0.154512,-0.451136 0.0218,-0.06904 0.03806,-0.136882 0.04599,-0.202055 0.01327,-0.03642 0.02519,-0.114059 0.03617,-0.226343 0.0329,-0.336859 0.05673,-0.983339 0.07803,-1.743564 0.02853,-1.013629 0.0531,-2.230218 0.0894,-3.189467 0.0079,-0.209807 0.01209,-0.417772 0.01344,-0.623219 1.6e-5,-0.0018 -1.1e-5,-0.0039 0,-0.0057 5e-6,-3.66e-4 0,-6.49e-4 0,-0.001 0.0015,-0.207595 3.59e-4,-0.412015 -0.0026,-0.6134 0.0043,-0.379439 0.0043,-0.73996 0.0021,-1.072287 -6.6e-5,-0.01022 7.1e-5,-0.02239 0,-0.03255 -0.0071,-1.01977 -0.03598,-1.732997 -0.03669,-1.750282 l 0.01705,-0.0083 -0.08733,-0.12764 c 0.06184,0.08644 -0.374677,-0.920398 -0.468704,-1.069184 a 3.2221934,1.7003488 0 0 0 -3.20239,-1.512054 3.2221934,1.7003488 0 0 0 -0.02532,0 z" />
    <path
       id="path13321-0"
       style="font-variation-settings:normal;vector-effect:none;fill:#cacaca;fill-opacity:1;stroke:#000000;stroke-width:0.390988;stroke-linecap:square;stroke-linejoin:miter;stroke-miterlimit:4;stroke-dasharray:none;stroke-dashoffset:0;stroke-opacity:1;stop-color:#000000"
       d="m 51.237062,6.471636 a 5.3830995,3.3287221 0 0 0 -5.383134,3.328995 5.3830995,3.3287221 0 0 0 0.0036,0.118339 5.3830995,3.3287221 0 0 0 -0.0036,0.118856 5.3830995,3.3287221 0 0 0 0.0083,0.17725 5.3830995,3.3287221 0 0 0 -0.0062,0.09715 h -0.0217 c 0,0 -0.08624,0.515846 -0.161231,1.283643 l -0.04289,-0.001 a 5.6015971,3.6697226 0 0 0 -0.0021,0.530717 c -0.05548,0.736263 -0.0889,1.616137 -0.04031,2.515092 0.05558,1.028271 0.09257,2.029515 0.136426,2.811715 l -0.08113,-0.0026 a 5.4206729,4.3266129 0 0 0 0.328662,1.83968 c 0.09378,0.365489 0.244616,0.71166 0.43925,1.036113 a 4.8034458,3.4408895 0 0 0 4.65863,2.602425 4.8034458,3.4408895 0 0 0 4.76405,-3.003436 c 0.03552,-0.08981 0.06873,-0.180739 0.0987,-0.273367 a 5.4206729,4.3266129 0 0 0 0.536919,-1.877404 l -0.135393,-0.0041 c 0.01843,-0.116046 0.03494,-0.208012 0.05374,-0.336412 l 0.07545,-0.0026 a 5.4146695,4.7095851 0 0 0 -0.06253,-0.09147 c 0.110857,-0.772096 0.221339,-1.726426 0.273885,-2.698543 0.04008,-0.741547 0.04729,-1.441422 0.04547,-2.089278 a 5.6015971,3.6697226 0 0 0 0.09767,-0.682129 l -0.101803,-0.0026 c -0.0017,-0.100321 -0.002,-0.20074 -0.0041,-0.293522 l 0.157096,-0.0041 a 5.6209279,3.9831443 0 0 0 -0.163297,-0.19482 c -0.01755,-0.619847 -0.04083,-1.061951 -0.04083,-1.061951 h -0.04599 a 5.3830995,3.3287221 0 0 0 -0.0021,-0.04289 5.3830995,3.3287221 0 0 0 -0.0041,-0.05323 5.3830995,3.3287221 0 0 0 0.0078,-0.178284 5.3830995,3.3287221 0 0 0 -0.0031,-0.118339 5.3830995,3.3287221 0 0 0 0.0031,-0.118856 5.3830995,3.3287221 0 0 0 -5.383134,-3.328995 z" />
  </g>
</svg>
