<?xml version="1.0" encoding="UTF-8" standalone="no"?>
<svg
   width="1024"
   height="768"
   viewBox="0 0 270.93333 203.20001"
   version="1.1"
   id="svg10703"
   inkscape:version="1.1 (c68e22c387, 2021-05-23)"
   sodipodi:docname="Title.svg"
   xmlns:inkscape="http://www.inkscape.org/namespaces/inkscape"
   xmlns:sodipodi="http://sodipodi.sourceforge.net/DTD/sodipodi-0.dtd"
   xmlns="http://www.w3.org/2000/svg"
   xmlns:svg="http://www.w3.org/2000/svg"
   xmlns:rdf="http://www.w3.org/1999/02/22-rdf-syntax-ns#"
   xmlns:cc="http://creativecommons.org/ns#"
   xmlns:dc="http://purl.org/dc/elements/1.1/">
  <defs
     id="defs10697" />
  <sodipodi:namedview
     id="base"
     pagecolor="#ffffff"
     bordercolor="#666666"
     borderopacity="1.0"
     inkscape:pageopacity="0.0"
     inkscape:pageshadow="2"
     inkscape:zoom="1.979899"
     inkscape:cx="513.66257"
     inkscape:cy="362.39223"
     inkscape:document-units="mm"
     inkscape:current-layer="layer1"
     inkscape:document-rotation="0"
     showgrid="false"
     units="px"
     inkscape:snap-global="false"
     inkscape:window-width="2560"
     inkscape:window-height="1377"
     inkscape:window-x="-8"
     inkscape:window-y="-8"
     inkscape:window-maximized="1"
     inkscape:pagecheckerboard="0" />
  <metadata
     id="metadata10700">
    <rdf:RDF>
      <cc:Work
         rdf:about="">
        <dc:format>image/svg+xml</dc:format>
        <dc:type
           rdf:resource="http://purl.org/dc/dcmitype/StillImage" />
      </cc:Work>
    </rdf:RDF>
  </metadata>
  <g
     inkscape:label="Layer 1"
     inkscape:groupmode="layer"
     id="layer1">
    <path
       id="path4417-0-6"
       style="vector-effect:none;fill:#000000;fill-opacity:1;stroke:none;stroke-width:1.24678;stroke-linecap:butt;stroke-linejoin:miter;stroke-miterlimit:4;stroke-dasharray:none;stroke-dashoffset:0;stroke-opacity:1;stop-color:#000000"
       d="M 859.78711 310.36719 A 67.73284 58.873159 0 0 0 792.05273 369.24023 A 67.73284 58.873159 0 0 0 859.78711 428.11328 A 67.73284 58.873159 0 0 0 927.51953 369.24023 A 67.73284 58.873159 0 0 0 859.78711 310.36719 z M 859.78711 318.26758 A 58.642417 50.971794 0 0 1 918.42969 369.24023 A 58.642417 50.971794 0 0 1 859.78711 420.21094 A 58.642417 50.971794 0 0 1 801.14453 369.24023 A 58.642417 50.971794 0 0 1 859.78711 318.26758 z "
       transform="scale(0.26458333)"
       inkscape:export-filename="C:\Omnipocket\Development\GameMaker\Collabs\bullseye-cola\art\TitleText2.png"
       inkscape:export-xdpi="64"
       inkscape:export-ydpi="64" />
    <path
       id="circle4421-6-5"
       style="vector-effect:none;fill:#000000;fill-opacity:1;stroke:none;stroke-width:0.963602;stroke-linecap:butt;stroke-linejoin:miter;stroke-miterlimit:4;stroke-dasharray:none;stroke-dashoffset:0;stroke-opacity:1;stop-color:#000000"
       d="M 859.78711 323.73828 A 52.349046 45.501619 0 0 0 807.4375 369.24023 A 52.349046 45.501619 0 0 0 859.78711 414.74219 A 52.349046 45.501619 0 0 0 912.13477 369.24023 A 52.349046 45.501619 0 0 0 859.78711 323.73828 z M 859.78711 329.8457 A 45.323282 39.39485 0 0 1 905.10938 369.24023 A 45.323282 39.39485 0 0 1 859.78711 408.63477 A 45.323282 39.39485 0 0 1 814.46289 369.24023 A 45.323282 39.39485 0 0 1 859.78711 329.8457 z "
       transform="scale(0.26458333)"
       inkscape:export-filename="C:\Omnipocket\Development\GameMaker\Collabs\bullseye-cola\art\TitleText2.png"
       inkscape:export-xdpi="64"
       inkscape:export-ydpi="64" />
    <path
       id="circle4425-5-7"
       style="vector-effect:none;fill:#000000;fill-opacity:1;stroke:none;stroke-width:0.706171;stroke-linecap:butt;stroke-linejoin:miter;stroke-miterlimit:4;stroke-dasharray:none;stroke-dashoffset:0;stroke-opacity:1;stop-color:#000000"
       d="M 859.78711 335.89453 A 38.363782 33.345672 0 0 0 821.42188 369.24023 A 38.363782 33.345672 0 0 0 859.78711 402.58594 A 38.363782 33.345672 0 0 0 898.15039 369.24023 A 38.363782 33.345672 0 0 0 859.78711 335.89453 z M 859.78711 340.36914 A 33.214979 28.870351 0 0 1 893.00195 369.24023 A 33.214979 28.870351 0 0 1 859.78711 398.11133 A 33.214979 28.870351 0 0 1 826.57227 369.24023 A 33.214979 28.870351 0 0 1 859.78711 340.36914 z "
       transform="scale(0.26458333)"
       inkscape:export-filename="C:\Omnipocket\Development\GameMaker\Collabs\bullseye-cola\art\TitleText2.png"
       inkscape:export-xdpi="64"
       inkscape:export-ydpi="64" />
    <rect
       style="vector-effect:none;fill:#000000;fill-opacity:1;stroke:none;stroke-width:0.0990798;stroke-linecap:butt;stroke-linejoin:miter;stroke-miterlimit:4;stroke-dasharray:none;stroke-dashoffset:0;stroke-opacity:1;stop-color:#000000"
       id="rect4436-3-8"
       width="24.799749"
       height="1.6534903"
       x="177.91254"
       y="157.46193"
       rx="0"
       ry="0"
       transform="matrix(0.95902819,-0.28331065,0.36416709,0.93133363,0,0)"
       inkscape:export-filename="C:\Omnipocket\Development\GameMaker\Collabs\bullseye-cola\art\TitleText2.png"
       inkscape:export-xdpi="64"
       inkscape:export-ydpi="64" />
    <path
       id="path4434-61-7"
       style="fill:#000000;fill-opacity:1;stroke:none;stroke-width:0.282568px;stroke-linecap:butt;stroke-linejoin:miter;stroke-opacity:1"
       d="M 867.84961 353.51562 L 858.23047 362.57031 A 29.420001 25.571767 0 0 0 867.89453 373.64648 L 876.20508 374.88672 L 869.72656 369.76172 C 869.30601 369.35053 867.49023 365.54102 867.49023 365.54102 L 866.30469 361.01172 L 867.84961 353.51562 z "
       transform="scale(0.26458333)"
       inkscape:export-filename="C:\Omnipocket\Development\GameMaker\Collabs\bullseye-cola\art\TitleText2.png"
       inkscape:export-xdpi="64"
       inkscape:export-ydpi="64" />
    <path
       id="path4429-0-8"
       style="vector-effect:none;fill:#000000;fill-opacity:1;stroke:none;stroke-width:0.0747628px;stroke-linecap:butt;stroke-linejoin:miter;stroke-miterlimit:4;stroke-dasharray:none;stroke-dashoffset:0;stroke-opacity:1;stop-color:#000000"
       d="m 254.47198,86.265746 -4.53452,4.26874 -0.53984,0.298946 0.19183,0.0286 -0.13205,0.124274 0.63761,-0.04889 6.58803,0.982981 -1.71451,-1.356094 1.88991,-0.144782 -2.48151,-0.971781 1.28632,-2.084849 -1.60001,0.88619 z"
       inkscape:export-filename="C:\Omnipocket\Development\GameMaker\Collabs\bullseye-cola\art\TitleText2.png"
       inkscape:export-xdpi="64"
       inkscape:export-ydpi="64" />
    <path
       id="path4460-6-0"
       style="vector-effect:none;fill:#000000;fill-opacity:1;stroke:none;stroke-width:0.0988986;stroke-linecap:butt;stroke-linejoin:miter;stroke-miterlimit:4;stroke-dasharray:none;stroke-dashoffset:0;stroke-opacity:1;stop-color:#000000"
       d="m 254.47198,86.265741 -4.53452,4.268741 -0.2037,0.112801 4.77311,-1.410044 1.15638,-1.874355 -1.60001,0.88619 z"
       inkscape:export-filename="C:\Omnipocket\Development\GameMaker\Collabs\bullseye-cola\art\TitleText2.png"
       inkscape:export-xdpi="64"
       inkscape:export-ydpi="64" />
    <text
       xml:space="preserve"
       style="font-style:normal;font-variant:normal;font-weight:bold;font-stretch:normal;font-size:43.0582px;line-height:1.25;font-family:Gabriola;-inkscape-font-specification:'Gabriola Bold';fill:#000000;fill-opacity:1;stroke:none;stroke-width:0.448829;stroke-miterlimit:4;stroke-dasharray:none;stroke-opacity:1"
       x="31.133724"
       y="109.85901"
       id="text11972"
       inkscape:export-xdpi="64"
       inkscape:export-ydpi="64"
       inkscape:export-filename="C:\Omnipocket\Development\GameMaker\Collabs\bullseye-cola\art\TitleText2.png"><tspan
         sodipodi:role="line"
         id="tspan11970"
         x="31.133724"
         y="109.85901"
         style="font-style:normal;font-variant:normal;font-weight:bold;font-stretch:normal;font-size:43.0582px;font-family:Gabriola;-inkscape-font-specification:'Gabriola Bold';fill:#000000;fill-opacity:1;stroke:none;stroke-width:0.448829;stroke-miterlimit:4;stroke-dasharray:none;stroke-opacity:1">Bullseye Cola</tspan></text>
    <text
       xml:space="preserve"
       style="font-weight:bold;font-size:16.9333px;line-height:1.25;font-family:Caladea;-inkscape-font-specification:'Caladea Bold';stroke-width:0.264583;fill:#7b7b7b;fill-opacity:1;"
       x="78.309967"
       y="165.70712"
       id="text12032"
       inkscape:export-xdpi="97.097099"
       inkscape:export-ydpi="97.097099"><tspan
         sodipodi:role="line"
         id="tspan12030"
         x="78.309967"
         y="165.70712"
         style="font-style:normal;font-variant:normal;font-weight:bold;font-stretch:normal;font-size:16.9333px;font-family:Gabriola;-inkscape-font-specification:'Gabriola Bold';stroke-width:0.264583;fill:#7b7b7b;fill-opacity:1;">A Mercerenies Game</tspan></text>
    <text
       xml:space="preserve"
       style="font-weight:bold;font-size:16.9333px;line-height:1.25;font-family:Caladea;-inkscape-font-specification:'Caladea Bold';fill:#7b7b7b;fill-opacity:1;stroke-width:0.264583"
       x="61.739258"
       y="30.468742"
       id="text12036"
       inkscape:export-xdpi="97.097099"
       inkscape:export-ydpi="97.097099"><tspan
         sodipodi:role="line"
         id="tspan12034"
         x="61.739258"
         y="30.468742"
         style="font-style:normal;font-variant:normal;font-weight:bold;font-stretch:normal;font-size:16.9333px;font-family:Gabriola;-inkscape-font-specification:'Gabriola Bold';fill:#6c6c6c;fill-opacity:1;stroke-width:0.264583">Choose a Level</tspan></text>
    <text
       xml:space="preserve"
       style="font-style:normal;font-variant:normal;font-weight:bold;font-stretch:normal;font-size:14.2032px;line-height:1.25;font-family:Gabriola;-inkscape-font-specification:'Gabriola Bold';fill:#000000;fill-opacity:1;stroke:none;stroke-width:0.264583;stroke-miterlimit:4;stroke-dasharray:none;stroke-opacity:1"
       x="128.92577"
       y="127.90038"
       id="text846"
       inkscape:export-xdpi="64"
       inkscape:export-ydpi="64"
       transform="scale(1.0093139,0.99077205)"
       inkscape:export-filename="C:\Omnipocket\Development\GameMaker\Collabs\bullseye-cola\art\TitleText2.png"><tspan
         sodipodi:role="line"
         id="tspan844"
         x="128.92577"
         y="127.90038"
         style="font-style:normal;font-variant:normal;font-weight:bold;font-stretch:normal;font-size:14.2032px;font-family:Gabriola;-inkscape-font-specification:'Gabriola Bold';fill:#000000;fill-opacity:1;stroke:none;stroke-width:0.264583;stroke-miterlimit:4;stroke-dasharray:none;stroke-opacity:1">It hits the spot!</tspan></text>
    <path
       id="path4285"
       style="vector-effect:none;fill:#ffffff;fill-opacity:1;stroke:none;stroke-width:0.385802;stroke-linecap:butt;stroke-linejoin:miter;stroke-miterlimit:4;stroke-dasharray:none;stroke-dashoffset:0;stroke-opacity:1;stop-color:#000000"
       d="m 212.61632,-55.22654 c -11.57546,-1.05e-4 -20.95932,8.156142 -20.95945,18.217491 1.3e-4,10.061347 9.38399,18.217587 20.95945,18.217487 11.57545,10e-5 20.95931,-8.15614 20.95944,-18.217487 0,-1.841685 0.52916,-2.160819 -0.10246,-3.918772 l 7.53147,-1.052058 5.75933,-1.782767 -2.00504,-1.585947 2.2102,-0.16898 -2.90215,-1.13688 0.15193,-0.24598 1.35237,-2.19211 -1.8712,1.03611 0.478,-2.31924 -5.7806,2.71789 -6.44147,2.394752 c -3.31346,-6.677713 -10.97311,-9.963431 -19.33982,-9.963509 z"
       sodipodi:nodetypes="sccsccccccccccccs"
       inkscape:export-xdpi="64"
       inkscape:export-ydpi="64"
       inkscape:export-filename="C:\Omnipocket\Development\GameMaker\Collabs\bullseye-cola\art\TitleText2.png" />
    <g
       id="g4315"
       transform="matrix(0.69926324,0,0,0.60779729,28.009441,-19.641282)"
       inkscape:export-xdpi="64"
       inkscape:export-ydpi="64"
       inkscape:export-filename="C:\Omnipocket\Development\GameMaker\Collabs\bullseye-cola\art\TitleText2.png">
      <g
         id="g4299"
         transform="translate(-0.51592471,-20.108334)">
        <circle
           style="opacity:1;vector-effect:none;fill:#000000;fill-opacity:1;stroke:none;stroke-width:0.506;stroke-linecap:butt;stroke-linejoin:miter;stroke-miterlimit:4;stroke-dasharray:none;stroke-dashoffset:0;stroke-opacity:1;stop-color:#000000;stop-opacity:1"
           id="circle4287"
           cx="265.90625"
           cy="-8.4666643"
           r="25.628374" />
        <circle
           style="opacity:1;vector-effect:none;fill:#ffffff;fill-opacity:1;stroke:none;stroke-width:0.43809;stroke-linecap:butt;stroke-linejoin:miter;stroke-miterlimit:4;stroke-dasharray:none;stroke-dashoffset:0;stroke-opacity:1;stop-color:#000000;stop-opacity:1"
           id="circle4289"
           cx="265.90625"
           cy="-8.4666643"
           r="22.188791" />
        <circle
           style="opacity:1;vector-effect:none;fill:#000000;fill-opacity:1;stroke:none;stroke-width:0.391075;stroke-linecap:butt;stroke-linejoin:miter;stroke-miterlimit:4;stroke-dasharray:none;stroke-dashoffset:0;stroke-opacity:1;stop-color:#000000;stop-opacity:1"
           id="circle4291"
           cx="265.90625"
           cy="-8.4666643"
           r="19.807541" />
        <circle
           style="opacity:1;vector-effect:none;fill:#ffffff;fill-opacity:1;stroke:none;stroke-width:0.43809;stroke-linecap:butt;stroke-linejoin:miter;stroke-miterlimit:4;stroke-dasharray:none;stroke-dashoffset:0;stroke-opacity:1;stop-color:#000000;stop-opacity:1"
           id="circle4293"
           cx="265.90625"
           cy="-8.4666643"
           r="17.149172" />
        <circle
           style="opacity:1;vector-effect:none;fill:#000000;fill-opacity:1;stroke:none;stroke-width:0.286598;stroke-linecap:butt;stroke-linejoin:miter;stroke-miterlimit:4;stroke-dasharray:none;stroke-dashoffset:0;stroke-opacity:1;stop-color:#000000;stop-opacity:1"
           id="circle4295"
           cx="265.90625"
           cy="-8.4666643"
           r="14.515874" />
        <circle
           style="opacity:1;vector-effect:none;fill:#ffffff;fill-opacity:1;stroke:none;stroke-width:0.43809;stroke-linecap:butt;stroke-linejoin:miter;stroke-miterlimit:4;stroke-dasharray:none;stroke-dashoffset:0;stroke-opacity:1;stop-color:#000000;stop-opacity:1"
           id="circle4297"
           cx="265.90625"
           cy="-8.4666643"
           r="12.567699" />
      </g>
      <g
         id="g4311"
         transform="matrix(0.41038055,-0.13947624,0.13947624,0.41038055,150.70782,-13.332266)">
        <rect
           style="opacity:1;vector-effect:none;fill:#000000;fill-opacity:1;stroke:none;stroke-width:0.349999;stroke-linecap:butt;stroke-linejoin:miter;stroke-miterlimit:4;stroke-dasharray:none;stroke-dashoffset:0;stroke-opacity:1;stop-color:#000000;stop-opacity:1"
           id="rect4301"
           width="82.88028"
           height="6.1739259"
           x="265.10464"
           y="47.146343"
           rx="0"
           ry="0" />
        <path
           id="path4303"
           style="fill:#000000;fill-opacity:1;stroke:none;stroke-width:0.264583px;stroke-linecap:butt;stroke-linejoin:miter;stroke-opacity:1"
           d="m 273.57916,39.158333 -19.37969,10.527522 -2.05156,0.501261 0.56431,0.306443 -0.56431,0.306441 2.05156,0.501261 19.37969,10.527522 -3.69951,-6.694165 c -0.21473,-0.509159 -0.48421,-4.641059 -0.48421,-4.641059 l 0.48421,-4.641061 z"
           sodipodi:nodetypes="ccccccccccc" />
        <path
           id="path4305"
           style="opacity:1;vector-effect:none;fill:#000000;fill-opacity:1;stroke:none;stroke-width:1.32283;stroke-linecap:butt;stroke-linejoin:miter;stroke-miterlimit:4;stroke-dasharray:none;stroke-dashoffset:0;stroke-opacity:1;stop-color:#000000;stop-opacity:1"
           d="m 1034,148 -73.24609,39.78906 -7.75391,1.89453 2.13281,1.15821 -0.14062,0.0762 h 63.20121 c -2e-4,-0.002 -0.01,-0.0762 -0.01,-0.0762 l 1.8301,-17.54102 z"
           transform="scale(0.26458333)" />
        <path
           id="path4307"
           style="opacity:1;vector-effect:none;fill:#000000;fill-opacity:1;stroke:none;stroke-width:0.264583px;stroke-linecap:butt;stroke-linejoin:miter;stroke-miterlimit:4;stroke-dasharray:none;stroke-dashoffset:0;stroke-opacity:1;stop-color:#000000;stop-opacity:1"
           d="m 360.09791,39.422916 -19.37969,10.527522 -2.05156,0.501261 0.56431,0.306443 -0.56431,0.306441 2.05156,0.501261 19.37969,10.527522 -3.69951,-6.694165 6.08076,1.486215 -6.56497,-6.127274 6.56497,-6.127276 -6.08076,1.486215 z" />
        <path
           id="path4309"
           style="opacity:1;vector-effect:none;fill:#000000;fill-opacity:1;stroke:none;stroke-width:1.32283;stroke-linecap:butt;stroke-linejoin:miter;stroke-miterlimit:4;stroke-dasharray:none;stroke-dashoffset:0;stroke-opacity:1;stop-color:#000000;stop-opacity:1"
           d="m 1361,149 -73.2461,39.78906 -2.9258,0.71485 h 62.8653 L 1370,168.68359 l -22.9824,5.61719 z"
           transform="scale(0.26458333)" />
      </g>
      <path
         id="path4313"
         style="opacity:1;vector-effect:none;fill:#ffffff;fill-opacity:1;stroke:none;stroke-width:0.43809;stroke-linecap:butt;stroke-linejoin:miter;stroke-miterlimit:4;stroke-dasharray:none;stroke-dashoffset:0;stroke-opacity:1;stop-color:#000000;stop-opacity:1"
         d="m 264.87949,-39.813194 a 11.131776,11.131776 0 0 0 -9.45835,11.00501 11.131776,11.131776 0 0 0 11.13213,11.13214 11.131776,11.131776 0 0 0 10.28001,-6.86212 11.131776,11.131776 0 0 1 -1.6738,0.12661 11.131776,11.131776 0 0 1 -11.13213,-11.13162 11.131776,11.131776 0 0 1 0.85214,-4.27002 z" />
    </g>
    <text
       xml:space="preserve"
       style="font-style:normal;font-variant:normal;font-weight:bold;font-stretch:normal;font-size:43.0582px;line-height:1.25;font-family:Gabriola;-inkscape-font-specification:'Gabriola Bold';fill:#000000;fill-opacity:1;stroke:#ffffff;stroke-width:0.448829;stroke-miterlimit:4;stroke-dasharray:none;stroke-opacity:1"
       x="17.235708"
       y="-24.844833"
       id="text4319"
       inkscape:export-xdpi="64"
       inkscape:export-ydpi="64"
       inkscape:export-filename="C:\Omnipocket\Development\GameMaker\Collabs\bullseye-cola\art\TitleText2.png"><tspan
         sodipodi:role="line"
         id="tspan4317"
         x="17.235708"
         y="-24.844833"
         style="font-style:normal;font-variant:normal;font-weight:bold;font-stretch:normal;font-size:43.0582px;font-family:Gabriola;-inkscape-font-specification:'Gabriola Bold';fill:#000000;fill-opacity:1;stroke:#ffffff;stroke-width:0.448829;stroke-miterlimit:4;stroke-dasharray:none;stroke-opacity:1">Bullseye Cola</tspan></text>
    <text
       xml:space="preserve"
       style="font-style:normal;font-variant:normal;font-weight:bold;font-stretch:normal;font-size:14.2032px;line-height:1.25;font-family:Gabriola;-inkscape-font-specification:'Gabriola Bold';fill:#000000;fill-opacity:1;stroke:none;stroke-width:0.264583;stroke-miterlimit:4;stroke-dasharray:none;stroke-opacity:1"
       x="115.156"
       y="-8.0580769"
       id="text4323"
       inkscape:export-xdpi="64"
       inkscape:export-ydpi="64"
       transform="scale(1.0093139,0.99077205)"
       inkscape:export-filename="C:\Omnipocket\Development\GameMaker\Collabs\bullseye-cola\art\TitleText2.png"><tspan
         sodipodi:role="line"
         id="tspan4321"
         x="115.156"
         y="-8.0580769"
         style="font-style:normal;font-variant:normal;font-weight:bold;font-stretch:normal;font-size:14.2032px;font-family:Gabriola;-inkscape-font-specification:'Gabriola Bold';fill:#000000;fill-opacity:1;stroke:none;stroke-width:0.264583;stroke-miterlimit:4;stroke-dasharray:none;stroke-opacity:1">It hits the spot!</tspan></text>
  </g>
</svg>
